M48
; DRILL file {KiCad 7.0.10} date Mon Jan 29 23:22:34 2024
; FORMAT={-:-/ absolute / metric / decimal}
; #@! TF.CreationDate,2024-01-29T23:22:34-08:00
; #@! TF.GenerationSoftware,Kicad,Pcbnew,7.0.10
; #@! TF.FileFunction,Plated,1,2,PTH
FMAT,2
METRIC
; #@! TA.AperFunction,Plated,PTH,ComponentDrill
T1C0.800
; #@! TA.AperFunction,Plated,PTH,ComponentDrill
T2C1.000
; #@! TA.AperFunction,Plated,PTH,ComponentDrill
T3C1.100
; #@! TA.AperFunction,Plated,PTH,ComponentDrill
T4C1.500
; #@! TA.AperFunction,Plated,PTH,ComponentDrill
T5C3.000
%
G90
G05
T1
X98.425Y-126.206
X98.425Y-145.256
X98.584Y-107.156
X98.584Y-164.306
X106.045Y-126.206
X106.045Y-145.256
X106.204Y-107.156
X106.204Y-164.306
X117.475Y-145.256
X117.634Y-107.156
X117.634Y-126.206
X117.634Y-164.306
X125.095Y-145.256
X125.254Y-107.156
X125.254Y-126.206
X125.254Y-164.306
X136.684Y-107.156
X136.684Y-145.256
X136.684Y-164.306
X136.843Y-126.206
X144.304Y-107.156
X144.304Y-145.256
X144.304Y-164.306
X144.463Y-126.206
X150.971Y-164.306
X155.734Y-107.156
X155.734Y-145.256
X155.892Y-126.206
X158.591Y-164.306
X161.925Y-164.306
X163.354Y-107.156
X163.354Y-145.256
X163.512Y-126.206
X169.545Y-164.306
T2
X170.974Y-90.805
X170.974Y-93.345
X170.974Y-95.885
X170.974Y-98.425
X170.974Y-100.965
X170.974Y-103.505
X170.974Y-106.045
X170.974Y-108.585
X170.974Y-111.125
X170.974Y-113.665
X170.974Y-116.205
X170.974Y-118.745
X174.774Y-123.825
X176.094Y-147.281
X176.094Y-161.781
X177.314Y-123.825
X178.594Y-147.281
X179.854Y-123.825
X181.094Y-147.281
X181.094Y-161.781
X182.394Y-123.825
X186.214Y-90.805
X186.214Y-93.345
X186.214Y-95.885
X186.214Y-98.425
X186.214Y-100.965
X186.214Y-103.505
X186.214Y-106.045
X186.214Y-108.585
X186.214Y-111.125
X186.214Y-113.665
X186.214Y-116.205
X186.214Y-118.745
T3
X175.344Y-131.1
X175.344Y-135.6
X181.844Y-131.1
X181.844Y-135.6
T5
X98.584Y-95.091
X98.584Y-114.141
X98.584Y-133.191
X98.584Y-152.241
X104.934Y-92.551
X104.934Y-111.601
X104.934Y-130.651
X104.934Y-149.701
X117.634Y-95.091
X117.634Y-114.141
X117.634Y-133.191
X117.634Y-152.241
X123.984Y-92.551
X123.984Y-111.601
X123.984Y-130.651
X123.984Y-149.701
X136.684Y-95.091
X136.684Y-114.141
X136.684Y-133.191
X136.684Y-152.241
X143.034Y-92.551
X143.034Y-111.601
X143.034Y-130.651
X143.034Y-149.701
X155.734Y-95.091
X155.734Y-114.141
X155.734Y-133.191
X155.734Y-152.241
X162.084Y-92.551
X162.084Y-111.601
X162.084Y-130.651
X162.084Y-149.701
T4
X172.994Y-154.131G85X172.994Y-155.431
G05
X184.194Y-154.131G85X184.194Y-155.431
G05
M30
