M48
; DRILL file {KiCad 7.0.10} date Mon Jan 29 23:22:34 2024
; FORMAT={-:-/ absolute / metric / decimal}
; #@! TF.CreationDate,2024-01-29T23:22:34-08:00
; #@! TF.GenerationSoftware,Kicad,Pcbnew,7.0.10
; #@! TF.FileFunction,NonPlated,1,2,NPTH
FMAT,2
METRIC
; #@! TA.AperFunction,NonPlated,NPTH,ComponentDrill
T1C1.750
; #@! TA.AperFunction,NonPlated,NPTH,ComponentDrill
T2C3.988
%
G90
G05
T1
X97.314Y-97.631
X97.314Y-116.681
X97.314Y-135.731
X97.314Y-154.781
X107.474Y-97.631
X107.474Y-116.681
X107.474Y-135.731
X107.474Y-154.781
X116.364Y-97.631
X116.364Y-116.681
X116.364Y-135.731
X116.364Y-154.781
X126.524Y-97.631
X126.524Y-116.681
X126.524Y-135.731
X126.524Y-154.781
X135.414Y-97.631
X135.414Y-116.681
X135.414Y-135.731
X135.414Y-154.781
X145.574Y-97.631
X145.574Y-116.681
X145.574Y-135.731
X145.574Y-154.781
X154.464Y-97.631
X154.464Y-116.681
X154.464Y-135.731
X154.464Y-154.781
X164.624Y-97.631
X164.624Y-116.681
X164.624Y-135.731
X164.624Y-154.781
T2
X102.394Y-97.631
X102.394Y-116.681
X102.394Y-135.731
X102.394Y-154.781
X121.444Y-97.631
X121.444Y-116.681
X121.444Y-135.731
X121.444Y-154.781
X140.494Y-97.631
X140.494Y-116.681
X140.494Y-135.731
X140.494Y-154.781
X159.544Y-97.631
X159.544Y-116.681
X159.544Y-135.731
X159.544Y-154.781
M30
