G04 #@! TF.GenerationSoftware,KiCad,Pcbnew,7.0.10*
G04 #@! TF.CreationDate,2024-01-29T23:22:10-08:00*
G04 #@! TF.ProjectId,dilpad,64696c70-6164-42e6-9b69-6361645f7063,rev?*
G04 #@! TF.SameCoordinates,Original*
G04 #@! TF.FileFunction,Copper,L1,Top*
G04 #@! TF.FilePolarity,Positive*
%FSLAX46Y46*%
G04 Gerber Fmt 4.6, Leading zero omitted, Abs format (unit mm)*
G04 Created by KiCad (PCBNEW 7.0.10) date 2024-01-29 23:22:10*
%MOMM*%
%LPD*%
G01*
G04 APERTURE LIST*
G04 Aperture macros list*
%AMRoundRect*
0 Rectangle with rounded corners*
0 $1 Rounding radius*
0 $2 $3 $4 $5 $6 $7 $8 $9 X,Y pos of 4 corners*
0 Add a 4 corners polygon primitive as box body*
4,1,4,$2,$3,$4,$5,$6,$7,$8,$9,$2,$3,0*
0 Add four circle primitives for the rounded corners*
1,1,$1+$1,$2,$3*
1,1,$1+$1,$4,$5*
1,1,$1+$1,$6,$7*
1,1,$1+$1,$8,$9*
0 Add four rect primitives between the rounded corners*
20,1,$1+$1,$2,$3,$4,$5,0*
20,1,$1+$1,$4,$5,$6,$7,0*
20,1,$1+$1,$6,$7,$8,$9,0*
20,1,$1+$1,$8,$9,$2,$3,0*%
G04 Aperture macros list end*
G04 #@! TA.AperFunction,ComponentPad*
%ADD10R,1.600000X1.600000*%
G04 #@! TD*
G04 #@! TA.AperFunction,ComponentPad*
%ADD11O,1.600000X1.600000*%
G04 #@! TD*
G04 #@! TA.AperFunction,ComponentPad*
%ADD12C,2.000000*%
G04 #@! TD*
G04 #@! TA.AperFunction,ComponentPad*
%ADD13C,1.800000*%
G04 #@! TD*
G04 #@! TA.AperFunction,ComponentPad*
%ADD14RoundRect,0.450000X-0.450000X-0.450000X0.450000X-0.450000X0.450000X0.450000X-0.450000X0.450000X0*%
G04 #@! TD*
G04 #@! TA.AperFunction,ComponentPad*
%ADD15RoundRect,0.500000X-0.500000X0.500000X-0.500000X-0.500000X0.500000X-0.500000X0.500000X0.500000X0*%
G04 #@! TD*
G04 #@! TA.AperFunction,ComponentPad*
%ADD16RoundRect,0.550000X-0.550000X1.150000X-0.550000X-1.150000X0.550000X-1.150000X0.550000X1.150000X0*%
G04 #@! TD*
G04 #@! TA.AperFunction,ComponentPad*
%ADD17R,1.700000X1.700000*%
G04 #@! TD*
G04 #@! TA.AperFunction,ComponentPad*
%ADD18O,1.700000X1.700000*%
G04 #@! TD*
G04 #@! TA.AperFunction,ComponentPad*
%ADD19C,3.300000*%
G04 #@! TD*
G04 #@! TA.AperFunction,Conductor*
%ADD20C,0.250000*%
G04 #@! TD*
G04 APERTURE END LIST*
D10*
X163512500Y-126206250D03*
D11*
X155892500Y-126206250D03*
D10*
X144303750Y-145256250D03*
D11*
X136683750Y-145256250D03*
D12*
X175343750Y-131100000D03*
X181843750Y-131100000D03*
X175343750Y-135600000D03*
X181843750Y-135600000D03*
D13*
X170973750Y-90805000D03*
X170973750Y-93345000D03*
D14*
X170973750Y-95885000D03*
X170973750Y-98425000D03*
D13*
X170973750Y-100965000D03*
X170973750Y-103505000D03*
X170973750Y-106045000D03*
X170973750Y-108585000D03*
X170973750Y-111125000D03*
X170973750Y-113665000D03*
X170973750Y-116205000D03*
X170973750Y-118745000D03*
X186213750Y-90805000D03*
D14*
X186213750Y-93345000D03*
D13*
X186213750Y-95885000D03*
X186213750Y-98425000D03*
X186213750Y-100965000D03*
X186213750Y-103505000D03*
X186213750Y-106045000D03*
X186213750Y-108585000D03*
X186213750Y-111125000D03*
X186213750Y-113665000D03*
X186213750Y-116205000D03*
X186213750Y-118745000D03*
D10*
X125095000Y-145256250D03*
D11*
X117475000Y-145256250D03*
D10*
X106203750Y-107156250D03*
D11*
X98583750Y-107156250D03*
D12*
X181093750Y-147281250D03*
X176093750Y-147281250D03*
D15*
X178593750Y-147281250D03*
D16*
X184193750Y-154781250D03*
X172993750Y-154781250D03*
D12*
X176093750Y-161781250D03*
X181093750Y-161781250D03*
D10*
X163353750Y-107156250D03*
D11*
X155733750Y-107156250D03*
D10*
X106045000Y-126206250D03*
D11*
X98425000Y-126206250D03*
D10*
X161925000Y-164306250D03*
D11*
X169545000Y-164306250D03*
D10*
X125253750Y-107156250D03*
D11*
X117633750Y-107156250D03*
D10*
X163353750Y-145256250D03*
D11*
X155733750Y-145256250D03*
D17*
X182393750Y-123825000D03*
D18*
X179853750Y-123825000D03*
X177313750Y-123825000D03*
X174773750Y-123825000D03*
D10*
X125253750Y-126206250D03*
D11*
X117633750Y-126206250D03*
D10*
X144303750Y-107156250D03*
D11*
X136683750Y-107156250D03*
D10*
X158591250Y-164306250D03*
D11*
X150971250Y-164306250D03*
D10*
X144303750Y-164306250D03*
D11*
X136683750Y-164306250D03*
D10*
X106203750Y-164306250D03*
D11*
X98583750Y-164306250D03*
D10*
X144462500Y-126206250D03*
D11*
X136842500Y-126206250D03*
D10*
X125253750Y-164306250D03*
D11*
X117633750Y-164306250D03*
D10*
X106045000Y-145256250D03*
D11*
X98425000Y-145256250D03*
D19*
X117633750Y-95091250D03*
X123983750Y-92551250D03*
X155733750Y-152241250D03*
X162083750Y-149701250D03*
X98583750Y-133191250D03*
X104933750Y-130651250D03*
X98583750Y-114141250D03*
X104933750Y-111601250D03*
X98583750Y-152241250D03*
X104933750Y-149701250D03*
X117633750Y-152241250D03*
X123983750Y-149701250D03*
X136683750Y-95091250D03*
X143033750Y-92551250D03*
X136683750Y-114141250D03*
X143033750Y-111601250D03*
X117633750Y-133191250D03*
X123983750Y-130651250D03*
X136683750Y-152241250D03*
X143033750Y-149701250D03*
X98583750Y-95091250D03*
X104933750Y-92551250D03*
X155733750Y-114141250D03*
X162083750Y-111601250D03*
X155733750Y-133191250D03*
X162083750Y-130651250D03*
X117633750Y-114141250D03*
X123983750Y-111601250D03*
X136683750Y-133191250D03*
X143033750Y-130651250D03*
X155733750Y-95091250D03*
X162083750Y-92551250D03*
D20*
X163353750Y-94827500D02*
X169862500Y-88318750D01*
X163353750Y-107156250D02*
X163353750Y-94827500D01*
X179757354Y-88318750D02*
X181318750Y-89880146D01*
X181318750Y-89880146D02*
X181318750Y-106230000D01*
X181318750Y-106230000D02*
X186213750Y-111125000D01*
X169862500Y-88318750D02*
X179757354Y-88318750D01*
X180868750Y-90250000D02*
X180868750Y-108320000D01*
X167111948Y-91705698D02*
X170048896Y-88768750D01*
X170048896Y-88768750D02*
X179387500Y-88768750D01*
X167111948Y-122606802D02*
X167111948Y-91705698D01*
X180868750Y-108320000D02*
X186213750Y-113665000D01*
X179387500Y-88768750D02*
X180868750Y-90250000D01*
X163512500Y-126206250D02*
X167111948Y-122606802D01*
X170235292Y-89218750D02*
X179201104Y-89218750D01*
X167561948Y-141048052D02*
X167561948Y-91892094D01*
X163353750Y-145256250D02*
X167561948Y-141048052D01*
X180325552Y-110316802D02*
X186213750Y-116205000D01*
X179201104Y-89218750D02*
X180325552Y-90343198D01*
X167561948Y-91892094D02*
X170235292Y-89218750D01*
X180325552Y-90343198D02*
X180325552Y-110316802D01*
X186531250Y-119062500D02*
X186213750Y-118745000D01*
X173568750Y-164306250D02*
X169545000Y-164306250D01*
X176093750Y-161781250D02*
X173568750Y-164306250D01*
X179875552Y-121306802D02*
X179875552Y-105568750D01*
X179218750Y-127000000D02*
X182393750Y-123825000D01*
X178593750Y-138850000D02*
X175343750Y-135600000D01*
X182393750Y-123825000D02*
X179875552Y-121306802D01*
X173831250Y-129381250D02*
X176212500Y-127000000D01*
X175343750Y-135600000D02*
X173831250Y-134087500D01*
X175343750Y-135600000D02*
X181843750Y-135600000D01*
X172731802Y-98425000D02*
X170973750Y-98425000D01*
X173831250Y-134087500D02*
X173831250Y-129381250D01*
X179875552Y-105568750D02*
X172731802Y-98425000D01*
X181768750Y-123825000D02*
X182393750Y-123825000D01*
X178593750Y-147281250D02*
X178593750Y-138850000D01*
X176212500Y-127000000D02*
X179218750Y-127000000D01*
X176212500Y-107156250D02*
X172561250Y-103505000D01*
X172561250Y-103505000D02*
X170973750Y-103505000D01*
X177313750Y-123825000D02*
X176212500Y-122723750D01*
X176212500Y-122723750D02*
X176212500Y-107156250D01*
X104933750Y-92551250D02*
X104933750Y-111601250D01*
X110966250Y-86518750D02*
X180660292Y-86518750D01*
X104933750Y-92551250D02*
X110966250Y-86518750D01*
X104920000Y-130665000D02*
X104920000Y-149687500D01*
X104933750Y-122845000D02*
X104920000Y-122858750D01*
X104920000Y-149687500D02*
X104933750Y-149701250D01*
X180660292Y-86518750D02*
X183118750Y-88977208D01*
X104920000Y-122858750D02*
X104920000Y-130637500D01*
X183118750Y-97870000D02*
X186213750Y-100965000D01*
X183118750Y-88977208D02*
X183118750Y-97870000D01*
X104920000Y-130637500D02*
X104933750Y-130651250D01*
X104933750Y-130651250D02*
X104920000Y-130665000D01*
X104933750Y-111601250D02*
X104933750Y-122845000D01*
X123970000Y-149687500D02*
X123983750Y-149701250D01*
X129566250Y-86968750D02*
X180473896Y-86968750D01*
X123983750Y-130651250D02*
X123970000Y-130665000D01*
X123983750Y-92551250D02*
X123983750Y-111601250D01*
X123983750Y-111601250D02*
X123983750Y-130651250D01*
X123983750Y-92551250D02*
X129566250Y-86968750D01*
X182668750Y-89163604D02*
X182668750Y-99960000D01*
X182668750Y-99960000D02*
X186213750Y-103505000D01*
X123970000Y-130665000D02*
X123970000Y-149687500D01*
X180473896Y-86968750D02*
X182668750Y-89163604D01*
X143033750Y-111601250D02*
X143033750Y-130651250D01*
X182218750Y-89350000D02*
X182218750Y-102050000D01*
X143033750Y-130651250D02*
X143033750Y-149701250D01*
X182218750Y-102050000D02*
X186213750Y-106045000D01*
X148166250Y-87418750D02*
X180287500Y-87418750D01*
X180287500Y-87418750D02*
X182218750Y-89350000D01*
X143033750Y-92551250D02*
X143033750Y-111601250D01*
X143033750Y-92551250D02*
X148166250Y-87418750D01*
X162083750Y-130651250D02*
X162083750Y-149701250D01*
X181768750Y-104140000D02*
X186213750Y-108585000D01*
X179943750Y-87868750D02*
X181768750Y-89693750D01*
X166766250Y-87868750D02*
X179943750Y-87868750D01*
X181768750Y-89693750D02*
X181768750Y-104140000D01*
X162083750Y-92551250D02*
X166766250Y-87868750D01*
X162083750Y-92551250D02*
X162083750Y-111601250D01*
X162083750Y-111601250D02*
X162083750Y-130651250D01*
X169068750Y-110490000D02*
X170973750Y-108585000D01*
X169068750Y-153801000D02*
X169068750Y-110490000D01*
X173224000Y-157956250D02*
X169068750Y-153801000D01*
X177268750Y-157956250D02*
X173224000Y-157956250D01*
X181093750Y-161781250D02*
X177268750Y-157956250D01*
X187438750Y-97110000D02*
X186213750Y-95885000D01*
X187438750Y-125505000D02*
X187438750Y-97110000D01*
X181843750Y-131100000D02*
X187438750Y-125505000D01*
X175343750Y-131100000D02*
X181843750Y-131100000D01*
M02*
